<?xml version="1.0" encoding="utf-8"?>
<svg viewBox="0 0 24 24" xmlns="http://www.w3.org/2000/svg">
  <path d="M 9.24 2.5 C 7.412711810499433 2.4633962327989924 5.840040726381649 3.783927145758176 5.5600000000000005 5.59 C 3.7630521990755694 6.038111311696682 2.4989881082724525 7.648043099630191 2.49 9.5 C 2.49 11.2 3.7300000000000004 13.01 6.4 13.41 L 6.49 13.5 C 8.101788540343327 15.520800233311231 9.138240204096054 17.939187447758346 9.49 20.5 C 9.510002001755536 20.833033271222483 9.510002001755536 21.166966728777517 9.49 21.5 L 14.49 21.5 C 14.49 21.15 14.49 20.82 14.49 20.5 C 14.583550036750486 17.76951906646205 15.96303729052661 15.244167404119098 18.21 13.69 C 18.96392784507592 13.709722311696028 19.702904780987918 13.477472412794492 20.310000000000002 13.03 C 21.152784844438166 12.270904536613878 21.589801210317173 11.15984597842683 21.490000000000002 10.03 C 21.540030938181356 8.594526698721081 20.712864513351605 7.272643512829203 19.4 6.6899999999999995 C 18.84064981478003 4.741898330748915 17.02545787024876 3.4258841495236445 15 3.5 C 14.199595701910535 3.477961964431676 13.409247237816583 3.6824819506156716 12.719999999999999 4.09 C 11.890394519406023 3.1610152374650387 10.732175718948934 2.5908703786027103 9.49 2.5 L 9.24 2.5 Z" style=""/>
  <path d="M 9.68 14.78 C 10.278309241673885 14.890112693333332 10.891690758326115 14.890112693333332 11.49 14.78 L 11.49 17.5 C 10.80402407379344 16.661796024501307 10.198045509283855 15.76119804782579 9.68 14.81 L 9.68 14.78 Z" style="fill: rgb(41, 129, 12);"/>
  <path d="M 13.49 14.78 C 13.854960355016592 14.830025961799999 14.225039644983408 14.830025961799999 14.59 14.78 C 14.29 15.229999999999999 13.93 15.78 13.49 16.5 L 13.49 14.78 Z" style="fill: rgb(41, 129, 12);"/>
  <path d="M 9.4 4.5 L 9.620000000000001 4.5 C 10.494529729459112 4.684427630972978 11.12031956744799 5.456235099899991 11.120000000000001 6.35 C 11.120000000000001 7.35 10.88 7.6499999999999995 10.770000000000001 7.75 L 12.21 9.19 C 12.876618982425867 8.400731179338084 13.20377640425951 7.37971241280704 13.120000000000001 6.35 L 13.120000000000001 6.25 C 13.59968370661221 5.726647153161653 14.29179940064034 5.450537167998119 15 5.5 C 16.2 5.5 17.5 6.27 17.5 7.5 L 17.5 8.5 L 18.5 8.5 C 19.14867905275368 8.697161080381534 19.567497100614137 9.325388151225232 19.5 10 C 19.5 10.76 19.38 11.24 19.1 11.47 C 18.57347120418045 11.72319606751601 17.972892517476645 11.776501869642388 17.41 11.620000000000001 C 17.469962880123386 11.249681427246458 17.500059812613312 10.875141824836106 17.5 10.5 L 15.5 10.5 C 15.596800521260828 11.201855102548844 15.381169803619452 11.910878140644876 14.91 12.44 C 14.232478207456841 12.763618388157026 13.452094823959175 12.796134362106777 12.75 12.53 L 12.47 12.41 L 12.07 12.59 C 10.808804309352132 13.19169448615082 9.305118991880704 12.931055698035685 8.32 11.94 L 8 11.5 L 7.49 11.5 C 5.67 11.5 4.49 10.72 4.49 9.5 C 4.521348980663545 8.408679386919214 5.398679387352281 7.531348995739469 6.49 7.5 L 7.49 7.5 L 7.49 6.5 C 7.365214994341478 5.5355528638312235 8.037567191827385 4.649472814033159 9 4.51 C 9.132398799167188 4.490046854686599 9.266769561868115 4.4866875853431285 9.4 4.5 Z" style="fill: rgb(41, 129, 12);"/>
  <rect width="24" height="24" fill="none"/>
</svg>