<?xml version="1.0" encoding="utf-8"?>
<svg viewBox="0 0 1024 1024" xmlns="http://www.w3.org/2000/svg">
  <path d="M 599.872 203.776 C 620.9079887383768 198.54664097785133 642.6854285254402 196.9663694789419 664.256 199.104 L 666.88 199.232 C 698.048 200.256 718.08 203.328 746.3679999999999 215.552 C 783.9999999999999 231.68 820.8639999999999 260.608 857.856 304.89599999999996 C 954.24 420.15999999999997 940.608 677.6959999999999 823.104 826.6239999999999 C 815.4240000000001 836.3519999999999 791.104 868.2239999999999 792.384 866.56 C 783.0186296609143 879.0260484696086 772.9768958231105 890.9693021160984 762.304 902.3359999999999 C 731.072 934.9119999999999 697.024 951.5519999999999 652.2239999999999 952.3839999999999 C 620.8639999999999 953.0239999999999 598.656 947.0719999999999 567.9359999999999 933.632 L 561.4079999999999 930.752 C 540.4159999999999 921.536 530.8159999999999 918.848 514.1119999999999 918.848 C 495.99999999999983 918.848 485.50399999999985 921.728 462.97599999999983 931.52 L 456.51199999999983 934.336 C 428.09599999999983 946.5600000000001 408.19199999999984 952.384 380.35199999999986 953.5360000000001 C 306.2399999999999 956.288 263.42399999999986 915.456 199.67999999999986 821.3760000000001 C 103.03999999999986 679.296 67.07199999999986 472.0640000000001 144.63999999999987 334.9760000000001 C 190.91199999999986 253.0560000000001 274.55999999999983 201.3440000000001 365.3119999999999 199.93600000000012 C 398.1439999999999 199.36000000000013 425.5999999999999 206.78400000000013 464.9599999999999 222.65600000000012 C 492.09599999999995 233.53600000000012 499.71199999999993 236.4160000000001 502.3359999999999 236.9280000000001 C 518.5919999999999 216.76800000000011 530.1119999999999 199.93600000000012 536.896 186.6880000000001 C 550.4639999999999 160.3840000000001 564.096 126.7200000000001 577.5999999999999 85.8880000000001 C 585.3842209710908 62.48606900292755 615.5826924990506 56.286528532784956 631.9572487545805 74.72882714095756 C 639.5567069201129 83.28792789226696 642.0126698303372 95.25112587414303 638.3999999999999 106.11200000000011 C 625.7919999999999 144.0000000000001 612.9919999999998 176.5120000000001 599.8719999999998 203.77600000000012 L 599.872 203.776 Z" style=""/>
  <path d="M 548.352 281.856 C 533.824 299.648 516.544 319.23199999999997 496.448 340.672 C 479.59860992895665 358.6545365576896 449.6010742749616 351.65362211214637 442.4524358270417 328.0703539935048 C 439.1347411091287 317.1253209444336 441.90817052164823 305.2417242715076 449.72799999999995 296.896 L 462.01599999999996 283.648 C 433.984 272.44800000000004 400.768 256.96000000000004 366.33599999999996 257.536 C 295.9359999999999 258.624 231.03999999999996 299.136 194.68799999999996 363.328 C 121.6 492.608 176 684.16 247.296 788.992 C 282.11199999999997 840.3199999999999 323.648 897.9839999999999 378.24 895.9359999999999 C 430.72 893.824 450.56 861.2479999999999 514.1120000000001 861.2479999999999 C 577.6640000000001 861.2479999999999 595.392 895.9359999999999 651.0720000000001 894.7839999999999 C 707.5200000000001 893.6959999999999 726.8480000000001 855.7439999999999 777.9200000000001 790.9119999999999 C 885.8240000000001 654.1439999999999 885.8240000000001 428.1599999999999 813.696 341.8239999999999 C 741.504 255.5519999999999 689.024 257.7279999999999 662.0160000000001 256.7039999999999 C 620.5440000000001 252.41599999999988 580.416 269.2479999999999 548.3520000000001 281.8559999999999 L 548.352 281.856 Z" style="fill: rgb(255, 0, 0);"/>
</svg>