<?xml version="1.0" encoding="utf-8"?>
<svg viewBox="0 0 24 24" fill="#000000" xmlns="http://www.w3.org/2000/svg">
  <path d="M 22 8.5 L 19.535 8.5 L 15.835 2.9450000000000003 C 15.407760791099971 2.304526107849332 14.447402959071331 2.366729935549797 14.106355902458173 3.0569668900253224 C 13.948075417402645 3.3773069657983767 13.97271760799082 3.7577550351733167 14.171000000000001 4.055000000000001 L 17.132 8.5 L 6.868 8.5 L 9.832 4.055 C 10.259239189652625 3.414526095010017 9.832930342963014 2.5517299147188206 9.064644075954357 2.5019668754823616 C 8.708081189262845 2.4788717692926077 8.366282400941934 2.647755041132062 8.168000000000001 2.9449999999999994 L 4.465 8.5 L 2 8.5 C 1.2301996410804992 8.5 0.7490744167558108 9.333333333333334 1.1339745962155612 10 C 1.312607391169643 10.309401076758503 1.6427344100918364 10.5 2 10.5 L 3 10.5 L 3 18.5 C 3 20.15685424949238 4.34314575050762 21.5 6 21.5 L 18 21.5 C 19.65685424949238 21.5 21 20.15685424949238 21 18.5 L 21 10.5 L 22 10.5 C 22.7698003589195 10.5 23.25092558324419 9.666666666666666 22.866025403784437 9 C 22.687392608830354 8.690598923241497 22.357265589908163 8.5 22 8.5 Z"/>
  <path d="M 19 18.5 C 19 19.052 18.552 19.5 18 19.5 L 6 19.5 C 5.448 19.5 5 19.052 5 18.5 L 5 10.5 L 19 10.5 L 19 18.5 Z" style="fill: rgb(210, 210, 210);"/>
  <path d="M 15 17 L 15 13 C 15 12.2301996410805 15.833333333333334 11.74907441675581 16.5 12.13397459621556 C 16.809401076758505 12.312607391169642 17 12.642734410091837 17 13 L 17 17 C 17 17.7698003589195 16.166666666666668 18.25092558324419 15.5 17.866025403784437 C 15.190598923241497 17.687392608830354 15 17.357265589908163 15 17 Z"/>
  <path d="M 11 17 L 11 13 C 11 12.2301996410805 11.833333333333334 11.74907441675581 12.5 12.13397459621556 C 12.809401076758503 12.312607391169642 13 12.642734410091837 13 13 L 13 17 C 13 17.7698003589195 12.166666666666666 18.25092558324419 11.5 17.866025403784437 C 11.190598923241497 17.687392608830354 11 17.357265589908163 11 17 Z"/>
  <path d="M 7 17 L 7 13 C 7 12.2301996410805 7.833333333333333 11.74907441675581 8.5 12.13397459621556 C 8.809401076758503 12.312607391169642 9 12.642734410091837 9 13 L 9 17 C 9 17.7698003589195 8.166666666666666 18.25092558324419 7.5 17.866025403784437 C 7.190598923241497 17.687392608830354 7 17.357265589908163 7 17 Z"/>
</svg>