<?xml version="1.0" encoding="utf-8"?>
<svg viewBox="0 0 24 24" fill="none" stroke="#000000" stroke-width="2" stroke-linecap="round" stroke-linejoin="round" xmlns="http://www.w3.org/2000/svg">
  <path d="M 2.27 21.7 C 2.27 21.7 12.14 18.2 15 15.34 C 17.451814144146073 12.892034859625003 16.334197984023245 8.707889980437756 12.98829091280672 7.808539216436752 C 11.435450036954297 7.391149074288512 9.777890904315786 7.833895424551042 8.64 8.969999999999999 C 5.77 11.84 2.27 21.7 2.27 21.7 Z" style="stroke: none;"/>
  <path d="M 15.34 15 L 12.879999999999999 12.54" style="stroke: none;"/>
  <path d="M 8.64 14 L 6.590000000000001 11.96" style="stroke: none;"/>
  <path d="M 7.933 8.262 C 9.296 6.997 11.454 6.361 13.248 6.843 C 15.189 7.364 16.686 9.057 17.134 10.735 C 17.511 12.144 17.21 13.886 16.299 15.285 C 16.253 15.439 15.772 15.977 15.707 16.048 C 12.66 19.025 2.604 22.643 2.604 22.643 L 0.609 23.36 L 1.328 21.365 C 1.328 21.365 4.946 11.319 7.933 8.262 Z" style="stroke: none; fill: rgb(0, 0, 0);"/>
  <path d="M 7.299 12.665 C 7.514 12.449 7.61 12.16 7.587 11.878 C 7.378 12.202 7.179 12.537 6.9879999999999995 12.878 C 7.101 12.829 7.207 12.758 7.299 12.665 Z" style="stroke: none; fill: rgb(0, 0, 0);"/>
  <path d="M 3.966 20.004 C 6.822 18.904 11.204 17.507 13.921 14.995 L 12.173 13.247 C 11.782 12.857 11.782 12.223 12.173 11.833 C 12.563 11.442 13.197 11.442 13.587 11.833 L 15.168 13.414 C 15.428 12.742 15.406 12.013 15.202 11.252 C 14.868 10.001 14.134 9.152 12.729 8.774 C 11.417 8.422 10.26 8.671 9.347 9.678 C 8.747 10.262 8.208 10.94 7.72 11.674 L 9.345 13.291 C 8.954 12.902 10.084 13.919 9.293 14.684 C 8.502 15.449 7.543 14.319 7.935 14.709 L 6.676 13.456 C 5.504 15.706 4.674 18.17 3.966 20.004 Z" style="stroke: none; fill: rgb(255, 128, 0);"/>
  <path d="M22 9s-1.33-2-3.5-2C16.86 7 15 9 15 9s1.33 2 3.5 2S22 9 22 9z" style="stroke: rgb(0, 189, 13);"/>
  <path d="M15 2s-2 1.33-2 3.5S15 9 15 9s2-1.84 2-3.5C17 3.33 15 2 15 2z" style="stroke: rgb(0, 189, 13);"/>
</svg>