<?xml version="1.0" encoding="utf-8"?>
<svg viewBox="0 0 24 24" fill="none" xmlns="http://www.w3.org/2000/svg">
  <path d="M 12.5 3 C 14.757 3 16.931 3.953 18.533 5.154 C 18.584 5.186 18.632 5.222 18.676 5.263 C 18.848 5.396 19.013 5.532 19.17 5.67 C 19.735 6.166 20.245 6.728 20.67 7.307 C 20.782 7.408 20.87 7.533 20.927 7.675 C 21.596 8.679 22 9.704 22 10.5 C 22 11.307 21.499 12.162 20.892 12.573 C 20.335 12.95 19.492 13.196 18.654 13.318 C 17.915 13.426 17.056 13.473 16.118 13.493 L 16.558 17.403 C 16.65 18.551 16.254 19.837 15.566 20.617 C 14.878 21.397 13.651 22 12.5 22 C 11.349 22 10.122 21.397 9.434 20.617 C 8.746 19.837 8.349 18.563 8.44 17.415 L 8.882 13.493 C 7.944 13.473 7.085 13.426 6.346 13.318 C 5.508 13.196 4.665 12.95 4.108 12.573 C 3.501 12.162 3 11.307 3 10.5 C 3 9.614 3.51 8.42 4.227 7.411 C 5.308 5.951 7.192 4.387 9.335 3.573 C 9.355 3.565 9.374 3.558 9.395 3.551 C 10.336 3.221 11.434 3 12.5 3 Z" style="fill: rgb(0, 0, 0);"/>
  <path d="M20 8.04946C20 9.15403 19.1046 10 18 10C16.8954 10 16 9.10457 16 8C16 6.89543 16.8954 6 18 6M9.71111 4.5C7.70502 5.22148 6.04049 6.61991 5.03573 8C4.37536 8.90706 4 9.80619 4 10.5C4 12.7091 7.80558 12.5 12.5 12.5C17.1944 12.5 21 12.7091 21 10.5C21 8.29086 17.1944 4 12.5 4C11.5231 4 10.5847 4.18581 9.71111 4.5ZM9.71111 4.5L10 6C10 7.10457 8.88071 8 7.5 8C6.18928 8.00478 5.801 7.87667 5.5 7.5M10 12.5H15L15.5659 17.527C15.7964 19.3711 14.3585 21 12.5 21C10.6415 21 9.20361 19.3711 9.43412 17.527L10 12.5Z" stroke-width="2" stroke-linecap="round" stroke-linejoin="round" style=""/>
  <path d="M 18 11 C 17.243 11 16.367 10.609 15.879 10.121 C 15.391 9.633 15 8.757 15 8 C 15 7.243 15.391 6.367 15.879 5.8790000000000004 C 15.891 5.866 15.904 5.854 15.917 5.8420000000000005 C 14.897 5.319 13.757 5 12.5 5 C 11.92 5 11.388 5.064 10.863 5.192 L 11.005 5.933 L 11 6 C 10.936 6.796 10.492 7.716 9.892 8.195 C 9.313 8.658 8.359 8.971 7.5 9 C 6.808 9.001 6.254 8.962 5.867 8.86 C 5.802 8.843 5.743 8.823 5.6899999999999995 8.802 C 5.199 9.502 5 10.044 5 10.5 C 5 10.797 4.975 10.745 5.228 10.916 C 5.531 11.121 5.933 11.237 6.634 11.339 C 7.383 11.448 8.291 11.487 9.317 11.5 L 15.683 11.5 C 16.709 11.487 17.617 11.448 18.366 11.339 C 19.067 11.237 19.469 11.121 19.772 10.916 C 20.025 10.745 20 10.797 20 10.5 C 20 10.426 19.995 10.35 19.984 10.27 C 19.479 10.689 18.687 11 18 11 Z" style="fill: rgb(124, 100, 51);"/>
  <path d="M 7.496 7 C 8.018 7.029 8.317 6.894 8.643 6.633 C 8.949 6.389 9.007 6.366 9.018 6.189 L 8.963 5.901 C 8.352 6.212 7.8 6.587 7.311 7 C 7.369 7.001 7.431 7 7.496 7 Z" style="fill: rgb(171, 142, 85);"/>
  <path d="M 12.5 13.5 C 11.955 13.5 11.418 13.503 10.893 13.504 L 10.428 17.639 C 10.289 18.335 10.496 18.798 10.933 19.293 C 11.371 19.789 11.792 20 12.5 20 C 13.208 20 13.629 19.789 14.067 19.293 C 14.504 18.798 14.713 18.347 14.574 17.651 L 14.107 13.504 C 13.582 13.503 13.045 13.5 12.5 13.5 Z" style="fill: rgb(88, 73, 43);"/>
  <path d="M 17.611 7.078 C 17.462 7.141 17.408 7.178 17.293 7.293 C 17.057 7.529 17 7.652 17 8 C 17 8.348 17.057 8.471 17.293 8.707 C 17.529 8.943 17.652 9 18 9 C 18.358 9 18.487 8.944 18.72 8.72 C 18.867 8.577 18.959 8.483 18.995 8.345 C 18.684 7.964 18.302 7.569 17.851 7.173 C 17.803 7.131 17.755 7.09 17.706 7.048 C 17.666 7.059 17.633 7.069 17.611 7.078 Z" style="fill: rgb(171, 142, 85);"/>
</svg>